<?xml version="1.0" encoding="UTF-8"?>
<svg id="Layer_1" xmlns="http://www.w3.org/2000/svg" version="1.1" viewBox="0 0 1660 1656">
  <!-- Generator: Adobe Illustrator 29.8.2, SVG Export Plug-In . SVG Version: 2.1.1 Build 3)  -->
  <defs>
    <style>
      .st0 {
        fill: none;
        stroke: #fff;
        stroke-miterlimit: 10;
        stroke-width: 51px;
      }

      .st1 {
        fill: #f90e0a;
      }

      .st2 {
        fill: #090b0d;
      }
    </style>
  </defs>
  <path class="st0" d="M363.5,612.7c37.4,76.5,20.7,167.2,3.1,250.6,7.4-38.6,7.6-78.6.5-117.3-5.8-31.8-16-66.9.6-94.6,16.7,88.9,3,180.3-2.1,270.7-5.1,90.3,0,186.2,48.8,262.4,2.2,3.5,5,7.3,9.2,7.9,7.8,1.2,11.8-8.9,12.9-16.6,10-69.5,13.3-139.9,10-210-.8,56.4-30.5,178.8-33.5,84.3-15.8-116-22.1-160.2,9.5-273.1,3.9-13.8,8.6-27.4,9.4-41.7.8-13.9-2.3-27.6-4.8-41.3-8.6-46-11.9-93-9.8-139.8-2.1,76.1,38.6,147.5,42.3,223.5,3.6,74.8-28.7,151.2-7.6,223.1,69.1-138.2,52.1-302,33.5-455.4,40.1-74.3,38.4,186.4.4,271.5,4.8-61.9-41.1-125.9-15.9-182.7,30.6,60.8,51.4,126.5,61.4,193.8,18.9-29.2,22.6-65.4,25.8-100,4.8-52.5,9.6-105,14.5-157.5,44.4-44.3-16.2,328.3-54.1,488.7,6.1-79.7,7.6-159.8,4.4-239.8,7.8,114.4,8.8,235.4-46.3,335.9-11.2-58.9-12.4-119.7-3.7-179,9.7,57.4,10.9,116.3,3.3,174-2.5,19.1-5.9,39.1.6,57.3,4.6,13,13.8,23.7,23.1,33.8,48.2,52.1,105.9,95.4,169.3,127.2-65.9-69-131.8-138.1-197.8-207.1,93.1,41.7,130.7,157.6,217,211.8-54.8-81.2-115.4-158.5-181.3-231,55.8,41.8,107.3,89.3,153.4,141.5-34.1-83.4-68.8-170.6-61.6-260.4,39.3,53.4,65.3,116.5,75.1,182-20.2-77.2-9.4-158.6-7.7-238.4,2.3-104.8-11.4-209.2-25-313.2,15,38.5,21.8,80.2,19.5,121.5.4-23.4.9-46.9,1.3-70.3-6.7,57.5-19.1,114.2-37,169.3-.7-57.8-2.7-115.6-6.2-173.4-34.6,146.7-51.5,297.5-50.1,448.2-14.8-20.5-29.6-41-44.4-61.4-3.8-5.3-7.8-11.2-7-17.7,1.3-10.1,12.9-14.8,22.2-18.9,31.4-13.9,53.8-43.3,66.7-75.1,12.9-31.8,17.4-66.3,21.8-100.3-15,93.9-1.3,191,31,280.5,16.6,46,38.1,90.4,49,138.1,8.3,36,10.8,74.3,29.4,106.2,18.1,31.1,49.1,52,79.1,71.9,3.5,2.3,7.1,4.7,11.2,5.1,9.5,1.1,16.9-7.8,22.3-15.7,8.1-11.8,16.2-23.7,24.4-35.5,9.4-13.7,19.3-30,14.4-45.9-6.7-21.7-38.2-26.4-57.1-13.6-18.8,12.8-27.4,35.8-33.6,57.7,29.5,6.3,61-21,59-51.1-34.3,22.5-81.8,1.9-108.8-28.9-27-30.8-42.4-70.5-69.6-101.2,3.9,38.4,21,75.3,47.8,103-15.1-36.9-23.8-76.4-25.8-116.2-.3-5.2-.3-10.9,2.9-15,4-5.2,11.5-5.9,18.1-6.2,41.7-1.6,83.5-1.5,125.2.1-59.2-.7-119.3-39.5-174.2-17.2,129.1,2.6,258.3,5.2,387.4,7.8-11.3,10.2-27.2,12.9-42.3,14.9-110.1,14.6-222.1,15.4-332.4,2.3,34.9,62.4,117.9,80.7,188.7,70.7,70.8-10,137.1-41.2,207.7-52.1-43.1,12.5-89,1.5-133.3-5.9-86.4-14.4-175-14.7-261.5-.9,83,51.2,196.6,8.8,285.1,49.7-78.8,30.7-164.2,44.4-248.6,39.9,45.3,38.5,94.6,78.7,153.8,84.6-7.1-39.3-30.2-75.5-63-98.3.8,24.2,3.9,48.4,9.4,72,.9,4.1,2.1,8.4,5.2,11.2,3.4,3,8.4,3.4,13,3.6,18.8.6,37.6-.5,56.2-3.3-7.1,17.7-14.2,35.3-21.2,53,27.1,5,49.6-19.1,69-38.6,101.2-102.1,264.5-138,338.2-261.4-120.7,43.1-216.2,135.2-322.7,206.6-27.4,18.4-61,36.1-91.9,24.7,44.9-52.5,114.4-75.4,173-112,74.1-46.2,131.1-114.6,192.2-177,12.5-12.8,32.4-26,46.4-14.9,12.5,10,6.6,31.3-5.7,41.6-12.3,10.3-28.8,14.2-42.2,23-18.7,12.3-31.9,34.1-53.7,39.2-11.3,2.6-23.1.2-34.6-1.9-43.6-7.8-88.3-9.5-132.4-5.2,39.2-116.5.8-243-2.7-365.9-2.2-78.6,10.1-156.9,22.3-234.6,10.8,45.5,8.2,93,9.7,139.7,4.5,147.4,49.3,294.1,29.7,440.2,5.9-6.5,11.8-12.9,17.6-19.4-9.2,9.4-20.7,16.4-33.3,20.1-9.9-10.2,7.1-26.7,21.2-24.5s25.8,12.9,39.9,14.8c13.5-55.1,1.9-112.7-7-168.7-20.8-130.5-26.7-263.4-17.4-395.2,25.5,39.1,17.2,89.9,14,136.5-10,147.1,41.4,294,25.9,440.7,7.4-9,10.1-20.9,12.2-32.3,36.3-198.6-36-405.9,4.8-603.6-2.9,155.9-5.9,311.7-8.8,467.6-.4,19.2-.6,38.9,6.1,56.9,6.7,18,22.1,34,41.2,35.7,21.9-41,24.2-92,6.2-134.8-18.9,60-29.2,122.6-30.5,185.5,45.9-71.3,28.1-163.8,24.4-248.5-4.2-94.4,11.4-189.2,3-283.4,3.6-4.9,11.7-3.9,16,.4s5.6,10.7,6.6,16.7c12.8,75.3,3.6,152.3,1.6,228.7-2,76.4,4.2,156.4,43.9,221.6,13.1-33.2,6.3-70.4,1.7-105.7-13.3-101.9-6.7-205.2,0-307.7.9-13.6,3.2-29.6,15.3-36,9.8,41.3.6,84.7,4,127,3.3,41.4,18.7,81.1,23.1,122.4,4.1,38.2-1.3,76.8-6.6,114.9-5.1,36.3-10.2,72.6-15.3,108.9-2,14.3-4.1,28.8-9.4,42.2-6.3,15.8-16.9,29.5-28.3,42-34.8,38.2-83.5,69-134.9,64.1-4-.4-8.1-1.1-11.1-3.7-3.3-2.9-4.3-7.6-5.2-11.9-3.1-15.5-6.1-30.9-9.2-46.4"/>
  <path class="st2" d="M967.2,796.5l2-55c3-66.7,11-135.1.5-200.6-6.5-40.5-6.2-81.5-10.4-121.6-1.6-15.1-1.3-35-2.1-53.8-.5-11.1-6-22-.5-35.5-6.7-8.8-9.1-40-14.5-45.5-3.5-3.6-18.5-1.2-26.5-3.5-7.7-2.3-31.4-19.7-38.3-25.6-45.8-39.2-47.6-137.1-31.7-191.3,3.1-10.7,16.1-17.8,26.6-13.6,12,4.8,7.2,14.2,10,16.4,6.4,4.8,39.6,8.9,50.8,12.8,12.6,4.4,62.7,30.9,70.1,39.9,2.3,2.8,3,7.5,5.4,10.6,11.2,14.5,25.5,30.1,31.1,48.8,3.1,10.2,3,21.1,5.6,31.4,31.9-2.8,72.4,13.4,91.8,39.2,3.7,5,7.2,16.9,13.4,21.1,13.8,9.3,32.9-3.2,45.2,5.8,7.2,5.2,0,12.2-.5,17.2-1.3,12.2,1.7,18.7-5.3,30.7-24,40.9-89.8,62.3-135.5,57.9-18.2-1.8-37.5-9.5-55.2-13.8,5.1,31.4,4.1,63.3,6,95,1.9,32.4,7.3,62.9,6,96-2,47.4-5.3,92.3-2.1,140.1.2,2.8,1.4,18.2,2.1,18.9,5.2,5.5,13.9-14.6,16.9-18,38.3-43.4,124.1-47.5,175.5-29.5,24.9,8.7,83.6,41.8,75.5,74.1-.6,2.2-5.8-.9-3.1,9.5l15.1,23.9c1.8-11-2.3-20.8-3.8-31.2-5.9-43.5-11.9-88.4-14.2-131.8-1.1-20.9-4-42.6-5.6-64-3.2-42.8-.3-83.1-.7-126-.1-17.9,1.3-35.2,6.7-53.5,14.6-49.3,107.1-66.5,148.5-45.6,10.4,5.3,34,27.1,38.6,37.4,10.3,22.9,16.8,75.7,41.6,88.4,6.4,3.2,11.9,1.2,18.7,5.3,24.9,15.2-11,29.1-24.4,33.5-43.6,14.1-90.6,10.3-132.9-6.2-5.2-2-36.7-18.4-38.6-16.3.3,8.3-.5,16.7,0,25,1.5,25.7,7.5,50.1,7.8,75.8.6,52.6,10.4,105.2,12.3,158.1,2.1,58.5-3.5,115.7-2.2,174.2.8,37.8,5.4,75.9,6.1,113.9.2,15.4-2.1,38.6.2,57.8,1.7,14.3,6.1,3.4,11.3,1.7,2-.7,15.8-2.7,17.2-2.3,3.2,1,14.6,16.8,11.4,21.8,13.7-1.1,25.5-20.2,40.6-15.6,1,.3,15.9,10.7,16.4,11.6,1.8,3,1.4,7.3.5,10.5-1.3,5-28.4,26.9-34.6,31.4-16.4,12.1-29.6,17.8-44.9,31.1-7.1,6.2-13.9,3.9-14.3,15.9-.2,5.7,2.4,10.7,2.3,15.9,0,3.4-2.3,23.4-3.1,25.1-6.4,14.1-21.9,9.1-32.9,4-1.6,11.6.7,32-12.1,37-6.4,2.5-19.6-5.1-22.4-11.5-1.6-3.8-.2-13.3-4.5-11.5-22.4,16.1-43.4,33.9-65.2,50.8-31.1,24.1-61.2,49.5-94,72-5.4,3.7-15.2,11.2-20,13.9-24.3,13.4-44.8,33.6-68.9,49.2-24.2,15.6-54.5,25.8-79.6,40.4-16.6,9.7-33.7,22.2-49.2,32.8-15.8,10.9-30.6,23.2-47.2,32.8-2.4,3.7,4,7.7,6.4,11.8,3.7,6.4,13.6,21.3,14.6,27.5,2.2,13.3-6.1,8.4-9.4,13.5-1.1,1.7-.2,5-.5,5.3-3.8,3.9-18-13.3-19.2-13.8-5.2-2.2-4.3,2.3-6.3,3.7-6.3,4.3-11.4,4.8-9.5,12.1-5.8-1.4-12.6-1.8-18.1-3.9-6-2.3-14.8-12.1-19.6-11.7-6.3.6-20.3,19.3-26.7,21.2-9.6,2.8-6.7-1.1-17.1,5-8.7,5.2-15.8,3.2-25.5,3.3-1-2.9,7.8-1.5,4-5.9-.3-.3-4.4-1.4-7-3.9-4.5-4.4-9.6-9.4-13.7-14.1s.9-3.2,2.7-5.5c11.9-14.2,27.7-16.3,41.9-27.7,10.7-8.5,5.7-6.5,1.2-10.8-18.9-18-36.6-30-56-46.1-68.7-57.2-135.5-117.2-202-176-30.5-26.9-61.4-58.9-94.3-83.6-9.4-7.1-46.3-34.4-54.3-37.9-5.3-2.3-10.6,0-13.1-.8-3.4-1.2-3.3-6.2-6.6-7.2-.5-.2-10.9-.6-11.5-.5-1.6.2-1.2,5-6.5,5.4-29.4,2.1-9.3-28.3-16.7-40.5-1.4-2.3-21.2-15.6-25.5-18.6-4.6-3.2-8.9-6.2-13.5-9.4-8-5.6-15.6-5-19-16.1-1.2-3.9,3.7-2.3,3.6-3.6,0-1.6-3-4.2-1.6-6.8.3-.5,8.4-7.8,8.9-8.2,4.5-2.9,9.8-2.2,14.8-2.2-2.5-14.7-25.6-21.4-12.9-37.9,2.9-3.8,32.3-14,38.9-12.1,3.3-21.6.8-43.4,1.9-65.1,3.4-69.1,11-134.6,10-203.8-.9-64.5-5.4-129-11.2-192.4-2.8-30.8-11.9-52.1-16.2-82.2-.9-6.6.5-17.6-.7-25.3-1.6-10.3-9.1-53.4-12.3-59.8-1.2-2.4-3.7-2.6-4.9-4.1s.1-4-2-5.3c-3.7-2.2-15.5-3.8-21.1-6.5-16.4-7.7-42.3-22.5-57.4-32.6-40.1-27.1-63.4-66.6-90.3-105.7-9.7-33.5-8.4-64.6-3.3-98.6,6-6.6,19.4-9.1,28.2-8.4,45.7,3.3,153.1,34.6,189.8,61.9,5.6,4.2,10.6,11.7,15.4,16.7,1.6,1.7,1.4,1.8,4.1,1.3,1.8-7.5,6.1-14.3,10.4-20.6,22.2-32.6,56.1-52.4,94.8-61.2,16.5-3.8,30.5-2.3,45.8-4.2,3-.4,5.3-3.7,8.1-3.8,1.6,0,11.1,3.9,12.8,5.1,11.2,7.7,3.6,13.4,4,23.8,2.1,56.9-14.4,130-45,178.8-25,40-60.3,53.5-100.9,73.5.4,11.2-.2,22.5,0,33.7,1.6,78.1,5.2,157.4,7.4,236.2.4,13.4-3,29.4-1.3,43.4-8.7,4-1.2,2.6-.5,3.6,2.5,3.8-1.7,10.5-1.6,14.8,1.1,44.6,1.7,89.6,2,134,.5,76.2.6,151.7,6.5,227.5,1.9,5.5,20.3,16.8,25.9,21.6,48,41.1,88.9,84.4,140.3,122.2,16.7,12.3,28.9,29.3,44,43,25.1,22.8,54.5,45.7,85,60.1,23.2,11,27.5,23.2,45.4,36.6,18.1,13.6,39.3,25.4,58,40,17,13.3,39.2,30.6,53,47,5.9,6.9,7.2,20.2,17.5,15.5,6.2-2.8,25.5-16.8,32.4-21.6,42.6-30,76.2-58.5,121.1-86.9,81.5-51.7,149.3-119.4,222.3-181.6,12.2-10.4,33.8-23.3,43.8-34.3,4.8-5.3,4.3-17,9.6-23.4,7.7-9.3,22.4-5.8,23.3-6.7,5.2-5.1-.3-120,4.1-137.9-8.1,10.8-12.9,22.2-24.1,30.9-51.8,40.3-144.9,32.3-206.9,25-5.1-.6-14.9-1.5-19.1-2.9-6.5-2.1-8.9-10.6-15.9-11.1-1,36.3,1.1,73.8-8.2,109.1.1,9.2,11.8,7.9,5.7,19.5-9.8,18.5-49.5,9.9-66.6,9.4-65.4-2-130.7-6.4-196.1-5.9-10.9,0-26.4-2.2-37.5.3-10.1,2.3-6.9,9.5-26.2,7.3-23.1-2.6-9.5-14-11-28.8-.4-3.8-3.9-1.1-4.4-7.7-2.4-32.7,8.4-77.9,8.3-112.2,0-10.5-3.9-25.1-4.2-35.9-.8-22.8,6-56.9,2.2-77.8-.3-1.5-4.1-1.2-4.2-2.5-4.9-43.7-4-87.9-3.8-131.7,0-9.7-5.1-14.9,1.5-26.6,1.2-2.1,9.5-9.7,10-11.5,1.6-6.8-1-45.8-1.5-55.9-1.6-34.1-3-67.6-4.1-101.9-.2-5-.7-28.7.7-30.7.3-.5,6.1-.3,3.4-4.4-.1-.2-2.8,1.3-3.9.7-13.2-7-18-6.3-31.1-10.6-52-16.9-72.6-69.2-93.4-114.6-6.7-14.6-10.7-22.7-11.5-40.4-.6-12.4,4.2-26.7,2-38-1.4-7.1-18-14.8-5.9-24,1.3-1,11.9-6.1,13.5-6.5,23.6-6.2,52.2,5.6,75.6,9.4,21.5,3.5,39.5.3,61.3,10.3,50.4,23.1,80.4,124.9,63,174.2-4.3,12.2-19.4,34.8-21.3,46.7-4.9,31.2,3.6,62.7,5.9,92.9,4,53.9,7.6,112.1,6.7,166.2-.1,7-2.9,13.7-2.9,20.8,0,68.3,8.4,135.8,4.3,204.1-.7,11.6-9.2,43.2-2,51.9,5.8,7.1,32.4,9.4,42,11,1.9.3,4.7,1.4,8,2,28.3,4.9,54.5,6.3,83,8.4,9.5.7,22.4,5.2,30.2,5.4,8.9.3,19.1-4.4,30.8-3.8,4.1.2,9.2,3.2,14,2,1.1-3.1-1.8-6.2-2-8-4.8-50.5,11.3-117.7,16-169,1.7-18.5,3-43.3,0-61,1.1-.2,3.8.3,4,0,.8-1.1,0-23.4,0-28,.4-16.6.7-30.7-.2-47-.4-6.8,4.3-7.7-1.8-15h0ZM976.8,166.3c.6-.8.6-1.8.3-2.7-9.8-6.4-20.2-18.6-29.3-24.7-10.8-7.2-29.5-13.2-42.1-19.9-4.3-2.3-21-17.3-25.7-10.4-1.5,2.3-3.2,15.1-2.6,18.5,3.6,21.3,28.4,81.1,43.6,96.6,5.8,6,32.8,24.9,40.1,27.9,2,.8,3.7,1.5,5.9,1-1.1-11.2,14.3-17.1,16-25.1,3.8-18.8.2-32.9-5-50.9-1-3.3-4.5-7.2-5-9.1-.3-1.2,3.4-.8,3.7-1.2h0ZM455.2,164.5c-4.4,1.3-17.6-3.7-16,4,4.4-1.3,17.6,3.7,16-4ZM175.2,186.6c-5.8-7-19.8,3.3,0,4-.1-1.2.3-3.6,0-4ZM439.2,192.5c-15.1,2.8-33.6,3.5-46.5,12.1s-38.9,50.4-44.9,65.5c-9.4,23.5-12.1,54.1-4.5,78.3,29.7-5.3,58.7-26.7,74.6-52.1,18.2-29,14.8-70.9,21.2-103.8h0ZM250.6,237.2c-15.3-7.4-52-21.5-68.3-22.8-21.2-1.6-40.6,2.6-61.1-7.9-.8,7.7,5.1,13,7.5,19.4,9.8,26.6,12.4,47.9,33.4,70.6,31.1,33.5,72.7,39.8,115.8,46.2,3.1.5,5.4,3.4,8.1,3.6,1.1,0,14.6-1.2,15.1-1.8,1.6-1.5-1.8-40.3-2.5-44.5-4-23.8-27-52.5-48.1-62.8h0ZM1086.5,263.3c-11-7.8-30.3-18.6-44.1-16.6-3.9.6-22.1,6.6-25.5,8.5-2.9,1.7-19.4,18.4-19.3,19.9,3,22,13.5,31.8,31.8,42.3,31.2,17.9,66.8,18.8,97.9.1-8-13.6-20.9-24.7-24.6-40.4-6.3-2.7-11.2-10.3-16.1-13.8h0ZM1059.2,356.5c-4.9-7.2-17-6-24.4-8.6-14.2-5-25.9-13.5-39.6-19.4-4.1,4,19.6,17.2,22.6,18.4,12.2,5,28.3,7.3,41.4,9.6h0ZM1417.9,391.8c-7.1-7.6-21.8-22.3-31.2-25.8-10.1-3.7-33.6-3.4-42.5,2.5-6.6,4.3-36.2,35.5-35.2,42.8,22.8,9.4,38.4,29.1,58.3,42,20,12.9,33.3,12.6,56.9,11.2,4.3-.2,21.2-1.6,23.6-2.4,4.1-1.3,3.4-4.8,2.9-8.2-.9-7-21.8-50.6-26.7-57.5-1.8-2.5-4.6-3-6.2-4.7h0ZM644.5,395.3c-6.4-4.3-16.2-10.3-23.7-11.5-2.3-.4-18.9-.9-19.7-.4-4.8,3.2-4.4,24.3-4,30.3,1.9,30.1,22.7,65.4,43,87,11.6,12.4,18,11.8,32.5,17.5,6.8,2.7,11.9,11.4,21,6.3,14.8-8.2-2.5-45.3-6.2-57.1-9.3-29.9-14.5-53.1-42.9-72h0ZM347.2,384.5c-2.2-2.2-6.2,1.8-4,4s6.2-1.8,4-4ZM303.2,402.5c-.3-.3-7.5-2.5-8-2-2.4,2.4,4,7.9,8,6-.1-1.2.3-3.6,0-4h0ZM1214.6,955.9c1.3-1,5.7-7.9,6.9-10,15.1-24.5,23.1-60.4,27.4-88.5,3.7-24,3.9-48.7,1.2-72.8-12.2-7.2-19.4-18.4-31.1-26.9-36-26.1-80.9-31-122.3-14.5-15.5,6.2-24.6,22.4-37.3,32.7,1.5,37.9-26.4,98.8-7.2,132.5,2.6,4.5,33.2,33.1,38.1,35.9,27.1,15.3,77.1,19,107.8,16.4,4.7-.4,12.7-1.8,16.3-4.7h0ZM1287.2,958.5c-3.9-3.9-7.2,8.8-6,10,.6.5,6-.3,8,0-.7-1.9-1.7-9.6-2-10ZM397.2,1148.5c-1.1-4-4.3-4.5-8-4v4h8Z"/>
  <path class="st1" d="M737.2,656.5c4.8-4.2,24.8,3.8,25.6,7.2l-1.6,113.8,4,3c.9-37.7,1.2-75.3,1.9-113.1.2-13.6,2-28.1,2.2-42,.3-21.7-5-61.4.5-81.4,4-14.8,16.8-3.3,27.1-1.2,3.3,16.9-9.9,92.3,2.8,101.2,1.2.8,16.7,5.4,17.5,4.5-.3-7,1-19.3,5.9-24.6,4.1-4.4,12.2-2,13.9-6.7,2.4-6.8-4.4-11.9-3.4-17.2.9-4.8,6.3-6.8,7.6-9,5.7-9.8,3.2-34.9,4.1-47.5.5-7.5,4.2-16.8,4.2-24.1,0-9-9.8-16.5,1.1-22.7,7.6-4.4,15.8-1.9,22.5,3,12.4,9.1,3.5,12.6,2.3,21.9-1.8,14.6-3.5,35.1-4.2,49.8-1.9,41.8,2,83.5,2.1,125.1h14c.2-4.2-1.5-7.9-1.1-12.1,1.5-16.7,5.6-53.2,9.7-68.4,5.5-20.6,30.5-15.9,31.3,3.6.2,3.7-1.9,7.6-2,11.8-.6,68.4-3.8,137.8-3.5,206.1,0,8,3.2,18.2,1.6,27,29-17.8-4.9-52.8,12.3-74.7,7.9-10.1,25.1-1.2,31.7,6.7,6.2,7.3,1.5,8.2,1.8,15,.9,16.4.6,30.4.2,47-5.3-1.7-7.4,10.8-7.5,13.5-.3,6.2,2.8,10.3,3.5,14.5,2.9,17.7,1.6,42.5,0,61-4.7,51.3-20.8,118.5-16,169-5.4,4.5-13.7.2-12,6-11.8-.6-21.9,4.1-30.8,3.8-7.8-.3-20.7-4.7-30.2-5.4-28.5-2.1-54.7-3.5-83-8.4,3.8-12.5-11.2-19.4-8-2-9.6-1.7-36.2-4-42-11-7.1-8.7,1.3-40.3,2-51.9,4.2-68.3-4.3-135.8-4.3-204.1,0-7.1,2.8-13.8,2.9-20.8.9-54.1-2.7-112.4-6.7-166.2h0ZM891.2,1086.5c1.8-1.8-2-10.1-6.6-9.6-7,.7-11.5,6.8-11.4,13.6,2.9-1.3,17.4-3.3,18-4h0Z"/>
  <path class="st2" d="M566.4,789.3c35.2,25.2,48.7,63.6,44.8,106.1-1.1,12.7-4.1,22.3-12,32.2-14.3,17.7-44.1,40.8-67.1,42.9-41,3.7-61.1-3.8-84.3-37.7-12.9-18.9-19.4-37.1-16.5-61.1,7-58.7,77.2-123.8,135.1-82.4h0ZM547.8,847.9c-1.9-2.6-1.1-8.3-4.6-10.4-2-1.2-11.5-2.8-14.1-2.2-2.1.5-23.9,13-26.4,15.1-5.3,4.5-14.4,17.3-16.5,24-6.3,19.3.9,45.2,23.9,48,7,.8,24.9,1.9,31.8,1.8,18.7-.4,26.4-27,25.2-42.8-.5-6.2-3.7-20-7.1-24.9s-10.3-6.1-12.3-8.7h0Z"/>
</svg>