<?xml version="1.0" encoding="UTF-8"?>
<svg id="Layer_1" data-name="Layer 1" xmlns="http://www.w3.org/2000/svg" viewBox="0 0 1660 1656">
  <defs>
    <style>
      .cls-1 {
        fill: #f90e0a;
      }

      .cls-2 {
        fill: #090b0d;
      }
    </style>
  </defs>
  <path class="cls-2" d="M967.18,796.52l2.02-54.98c3.03-66.68,11.02-135.1.54-200.58-6.49-40.49-6.19-81.5-10.43-121.65-1.6-15.13-1.31-34.98-2.11-53.81-.47-11.12-5.97-22.01-.45-35.54-6.67-8.77-9.07-39.96-14.51-45.51-3.5-3.57-18.55-1.16-26.49-3.51-7.71-2.28-31.42-19.72-38.35-25.65-45.82-39.19-47.57-137.09-31.7-191.28,3.14-10.73,16.13-17.79,26.62-13.64,12.04,4.76,7.21,14.24,10.05,16.37,6.37,4.77,39.61,8.9,50.78,12.8,12.58,4.4,62.66,30.9,70.08,39.92,2.3,2.8,2.99,7.46,5.43,10.62,11.19,14.47,25.49,30.13,31.13,48.81,3.08,10.21,3.01,21.1,5.61,31.38,31.86-2.77,72.44,13.41,91.81,39.2,3.73,4.97,7.21,16.9,13.41,21.11,13.75,9.34,32.94-3.16,45.18,5.78,7.19,5.24.02,12.16-.52,17.25-1.29,12.19,1.69,18.74-5.33,30.74-23.97,40.92-89.77,62.31-135.52,57.91-18.17-1.75-37.52-9.46-55.23-13.75,5.1,31.42,4.1,63.3,6,94.98,1.94,32.38,7.34,62.89,5.97,95.99-1.96,47.36-5.3,92.32-2.06,140.1.19,2.83,1.44,18.23,2.09,18.92,5.16,5.45,13.89-14.58,16.95-18.04,38.34-43.38,124.13-47.47,175.53-29.45,24.91,8.73,83.61,41.79,75.47,74.13-.55,2.18-5.83-.87-3.11,9.48l15.12,23.88c1.79-11.02-2.34-20.85-3.75-31.23-5.87-43.52-11.88-88.4-14.17-131.8-1.1-20.91-3.97-42.57-5.6-64-3.25-42.81-.33-83.1-.65-125.98-.13-17.91,1.33-35.25,6.74-53.45,14.64-49.31,107.14-66.49,148.52-45.6,10.45,5.27,33.99,27.1,38.6,37.4,10.27,22.91,16.75,75.74,41.58,88.42,6.37,3.25,11.92,1.23,18.66,5.34,24.91,15.16-10.96,29.12-24.36,33.45-43.59,14.09-90.63,10.29-132.89-6.19-5.17-2.02-36.67-18.37-38.64-16.34.29,8.28-.46,16.69,0,24.97,1.46,25.67,7.51,50.08,7.8,75.81.59,52.58,10.39,105.22,12.26,158.13,2.07,58.46-3.47,115.73-2.16,174.16.85,37.84,5.45,75.89,6.07,113.92.25,15.38-2.06,38.61.21,57.82,1.69,14.32,6.14,3.42,11.27,1.65,1.99-.69,15.75-2.73,17.18-2.27,3.17,1.01,14.58,16.8,11.36,21.81,13.73-1.14,25.5-20.23,40.59-15.6.96.29,15.9,10.7,16.42,11.55,1.82,2.96,1.36,7.27.49,10.54-1.33,5-28.39,26.88-34.57,31.45-16.38,12.11-29.58,17.79-44.87,31.14-7.08,6.18-13.89,3.92-14.28,15.89-.19,5.67,2.42,10.66,2.28,15.93-.09,3.44-2.35,23.37-3.11,25.06-6.36,14.08-21.9,9.14-32.95,4.04-1.56,11.55.73,32.01-12.11,36.98-6.44,2.49-19.63-5.06-22.39-11.5-1.62-3.79-.19-13.34-4.49-11.47-22.36,16.13-43.45,33.92-65.21,50.8-31.1,24.13-61.23,49.52-93.98,72.02-5.36,3.68-15.19,11.25-20.04,13.93-24.35,13.45-44.82,33.59-68.88,49.15-24.16,15.62-54.48,25.84-79.6,40.4-16.64,9.65-33.69,22.16-49.16,32.84-15.77,10.88-30.6,23.16-47.23,32.78-2.36,3.68,4.01,7.74,6.36,11.78,3.74,6.44,13.57,21.35,14.59,27.48,2.21,13.29-6.07,8.39-9.37,13.46-1.1,1.69-.21,5.04-.51,5.35-3.8,3.93-18.04-13.35-19.17-13.83-5.16-2.18-4.35,2.35-6.34,3.72-6.29,4.34-11.42,4.82-9.5,12.14-5.79-1.39-12.59-1.8-18.07-3.93-6.04-2.35-14.82-12.13-19.59-11.69-6.29.58-20.32,19.35-26.7,21.19-9.61,2.77-6.74-1.11-17.06,5.04-8.71,5.19-15.78,3.16-25.54,3.33-1.01-2.94,7.79-1.48,3.97-5.94-.26-.31-4.44-1.41-7.05-3.94-4.54-4.41-9.63-9.38-13.71-14.1s.86-3.22,2.74-5.46c11.91-14.24,27.67-16.35,41.9-27.67,10.69-8.5,5.69-6.52,1.18-10.81-18.89-17.98-36.62-29.99-55.99-46.11-68.73-57.18-135.51-117.22-202.04-175.98-30.47-26.91-61.44-58.88-94.29-83.61-9.37-7.06-46.33-34.41-54.3-37.89-5.27-2.3-10.59.09-13.06-.78-3.43-1.22-3.27-6.24-6.6-7.23-.55-.16-10.88-.56-11.45-.5-1.58.17-1.2,5.02-6.51,5.41-29.42,2.13-9.31-28.27-16.68-40.51-1.41-2.34-21.16-15.61-25.45-18.58-4.62-3.21-8.94-6.24-13.48-9.43-7.96-5.58-15.63-5.04-18.97-16.14-1.19-3.94,3.66-2.27,3.62-3.57-.05-1.63-2.96-4.22-1.58-6.79.29-.53,8.42-7.82,8.93-8.15,4.54-2.89,9.77-2.25,14.79-2.22-2.45-14.73-25.56-21.36-12.91-37.89,2.92-3.81,32.33-14.01,38.92-12.08,3.28-21.6.84-43.4,1.91-65.09,3.4-69.12,10.98-134.57,10-203.84-.92-64.49-5.35-129-11.16-192.42-2.83-30.85-11.9-52.08-16.2-82.22-.94-6.57.49-17.56-.72-25.28-1.6-10.26-9.13-53.37-12.28-59.79-1.19-2.42-3.74-2.6-4.92-4.13s.11-4.05-1.97-5.3c-3.66-2.19-15.48-3.84-21.13-6.49-16.39-7.69-42.33-22.47-57.36-32.64-40.13-27.13-63.44-66.56-90.33-105.67-9.71-33.49-8.41-64.61-3.31-98.6,5.98-6.59,19.41-9.07,28.18-8.44,45.69,3.29,153.06,34.61,189.77,61.87,5.63,4.18,10.64,11.72,15.35,16.74,1.59,1.69,1.38,1.82,4.14,1.27,1.82-7.52,6.08-14.34,10.37-20.65,22.16-32.65,56.11-52.39,94.82-61.18,16.51-3.75,30.51-2.26,45.75-4.24,3.01-.39,5.31-3.72,8.08-3.83,1.61-.07,11.15,3.94,12.83,5.1,11.22,7.74,3.62,13.41,4.02,23.8,2.15,56.88-14.43,129.98-45,178.84-25.05,40.04-60.31,53.52-100.91,73.51.37,11.23-.24,22.51,0,33.74,1.63,78.13,5.2,157.39,7.39,236.2.37,13.4-3,29.44-1.26,43.43-8.68,3.99-1.17,2.62-.53,3.62,2.45,3.81-1.7,10.49-1.59,14.76,1.08,44.57,1.73,89.59,2.05,133.98.55,76.15.61,151.67,6.51,227.45,1.93,5.49,20.32,16.81,25.91,21.59,47.97,41.07,88.88,84.45,140.31,122.17,16.72,12.26,28.86,29.26,43.99,43.01,25.09,22.8,54.5,45.65,84.95,60.13,23.17,11.02,27.54,23.21,45.36,36.57,18.1,13.57,39.32,25.37,58.01,40.01,16.98,13.31,39.15,30.63,53,46.99,5.86,6.92,7.17,20.23,17.46,15.48,6.15-2.84,25.51-16.77,32.39-21.61,42.62-30.03,76.24-58.47,121.07-86.93,81.49-51.72,149.26-119.43,222.31-181.6,12.21-10.39,33.79-23.29,43.83-34.26,4.82-5.26,4.27-17.03,9.57-23.44,7.7-9.31,22.36-5.84,23.27-6.72,5.23-5.09-.3-120.01,4.07-137.9-8.14,10.85-12.86,22.25-24.05,30.94-51.83,40.27-144.9,32.31-206.91,25.04-5.09-.6-14.94-1.53-19.13-2.87-6.46-2.07-8.9-10.61-15.88-11.1-.96,36.32,1.06,73.75-8.15,109.06.11,9.24,11.83,7.92,5.67,19.53-9.81,18.49-49.52,9.93-66.56,9.42-65.4-1.96-130.65-6.41-196.06-5.92-10.89.08-26.36-2.2-37.5.32-10.1,2.28-6.94,9.54-26.19,7.34-23.1-2.64-9.54-14.01-11.03-28.85-.39-3.83-3.87-1.14-4.36-7.7-2.44-32.73,8.38-77.94,8.33-112.21-.02-10.5-3.88-25.1-4.25-35.92-.77-22.83,5.96-56.9,2.18-77.78-.27-1.48-4.06-1.19-4.21-2.52-4.87-43.65-4.05-87.9-3.8-131.68.05-9.65-5.06-14.94,1.45-26.6,1.17-2.1,9.51-9.72,9.95-11.54,1.64-6.78-1.03-45.75-1.5-55.93-1.58-34.11-2.99-67.57-4.06-101.94-.16-5.02-.68-28.69.65-30.65.32-.48,6.11-.26,3.42-4.44-.14-.21-2.75,1.33-3.94.69-13.22-7.04-18.02-6.34-31.13-10.6-51.98-16.89-72.62-69.21-93.42-114.58-6.71-14.64-10.71-22.7-11.55-40.43-.59-12.37,4.21-26.74,2.02-38.05-1.37-7.1-17.95-14.8-5.92-24.01,1.31-1.01,11.86-6.07,13.49-6.5,23.56-6.17,52.25,5.6,75.58,9.37,21.47,3.47,39.51.31,61.3,10.29,50.38,23.08,80.37,124.94,63.01,174.23-4.31,12.25-19.43,34.8-21.29,46.71-4.89,31.23,3.61,62.73,5.88,92.88,4.05,53.86,7.64,112.08,6.74,166.22-.12,7-2.92,13.73-2.92,20.78-.04,68.27,8.42,135.75,4.26,204.07-.71,11.57-9.17,43.2-2.05,51.91,5.78,7.07,32.4,9.37,41.98,11.02,1.92.33,4.74,1.43,8,2,28.3,4.92,54.54,6.34,83,8.39,9.48.68,22.42,5.15,30.17,5.42,8.92.31,19.07-4.39,30.83-3.82,4.1.2,9.16,3.25,13.99,1.99,1.13-3.05-1.82-6.2-1.99-7.99-4.78-50.49,11.32-117.69,15.97-169.03,1.67-18.5,2.97-43.31.03-60.97,1.12-.18,3.75.34,4,.02.84-1.12-.1-23.4,0-28.02.38-16.64.7-30.65-.18-47.01-.37-6.83,4.35-7.65-1.82-14.99ZM976.85,166.29c.6-.81.57-1.79.31-2.74-9.79-6.45-20.18-18.62-29.32-24.69-10.77-7.16-29.48-13.25-42.06-19.94-4.27-2.27-21.05-17.35-25.65-10.43-1.52,2.29-3.16,15.14-2.59,18.51,3.57,21.27,28.43,81.12,43.57,96.58,5.83,5.96,32.78,24.87,40.13,27.89,2.02.83,3.68,1.48,5.92,1.04-1.11-11.16,14.33-17.06,15.96-25.06,3.83-18.84.21-32.95-4.95-50.92-.96-3.34-4.54-7.24-5-9.06-.31-1.21,3.36-.75,3.69-1.19ZM455.17,164.53c-4.37,1.31-17.58-3.68-15.98,3.98,4.37-1.31,17.58,3.68,15.98-3.98ZM175.17,186.55c-5.81-7-19.77,3.32,0,3.96-.12-1.23.31-3.59,0-3.96ZM439.17,192.53c-15.13,2.78-33.56,3.46-46.46,12.07s-38.9,50.38-44.94,65.5c-9.38,23.48-12.14,54.12-4.46,78.29,29.67-5.29,58.73-26.71,74.65-52.11,18.17-28.99,14.84-70.86,21.22-103.76ZM250.56,237.18c-15.31-7.44-51.99-21.52-68.29-22.75-21.18-1.6-40.55,2.62-61.07-7.91-.82,7.73,5.13,12.97,7.52,19.45,9.81,26.61,12.38,47.88,33.44,70.56,31.12,33.52,72.73,39.77,115.82,46.16,3.11.46,5.35,3.44,8.09,3.6,1.06.06,14.57-1.25,15.12-1.78,1.61-1.54-1.78-40.32-2.49-44.53-4-23.75-26.97-52.52-48.15-62.81ZM1086.46,263.27c-10.97-7.83-30.34-18.61-44.14-16.64-3.91.56-22.14,6.55-25.5,8.54-2.88,1.71-19.36,18.4-19.31,19.88,2.98,22.03,13.47,31.76,31.84,42.31,31.18,17.91,66.79,18.76,97.86.14-8.02-13.6-20.9-24.69-24.62-40.4-6.34-2.68-11.18-10.29-16.13-13.83ZM1059.18,356.5c-4.9-7.25-17-5.99-24.37-8.61-14.18-5.05-25.91-13.5-39.62-19.36-4.11,4.02,19.64,17.19,22.58,18.4,12.21,5.03,28.33,7.27,41.41,9.57ZM1417.87,391.82c-7.08-7.59-21.81-22.31-31.22-25.77-10.11-3.72-33.57-3.35-42.48,2.45-6.59,4.29-36.22,35.54-35.15,42.82,22.85,9.43,38.36,29.13,58.33,42.02,19.99,12.9,33.32,12.64,56.91,11.25,4.3-.25,21.17-1.59,23.62-2.37,4.14-1.32,3.36-4.75,2.92-8.2-.91-7.03-21.77-50.64-26.7-57.49-1.78-2.46-4.63-3-6.23-4.72ZM644.45,395.27c-6.4-4.26-16.19-10.26-23.65-11.55-2.35-.41-18.87-.94-19.69-.39-4.77,3.22-4.38,24.27-4.01,30.26,1.86,30.15,22.74,65.37,42.99,87,11.56,12.35,18.04,11.81,32.48,17.53,6.76,2.68,11.87,11.4,21,6.33,14.81-8.22-2.51-45.31-6.19-57.14-9.3-29.91-14.5-53.1-42.93-72.04ZM347.17,384.53c-2.18-2.18-6.16,1.8-3.98,3.98s6.16-1.8,3.98-3.98ZM303.17,402.55c-.26-.32-7.52-2.49-7.98-2.02-2.36,2.41,3.98,7.91,7.98,5.98-.12-1.23.31-3.57,0-3.96ZM1214.6,955.91c1.29-1.04,5.66-7.94,6.95-10.03,15.1-24.45,23.05-60.37,27.43-88.54,3.73-23.98,3.9-48.69,1.18-72.82-12.23-7.19-19.44-18.41-31.13-26.87-35.98-26.07-80.92-31-122.26-14.54-15.53,6.18-24.62,22.43-37.27,32.73,1.5,37.88-26.36,98.78-7.19,132.52,2.57,4.51,33.2,33.09,38.14,35.86,27.14,15.26,77.11,18.95,107.8,16.37,4.73-.4,12.71-1.77,16.34-4.69ZM1287.16,958.51c-3.87-3.92-7.22,8.82-5.97,9.99.55.51,6.04-.29,7.98,0-.74-1.9-1.66-9.63-2.01-9.99ZM397.18,1148.5c-1.07-3.98-4.26-4.49-7.99-3.97v3.98s7.99,0,7.99,0Z"/>
  <path class="cls-1" d="M737.18,656.52c4.75-4.15,24.77,3.77,25.57,7.2l-1.58,113.83,3.99,2.95c.86-37.72,1.25-75.31,1.93-113.07.24-13.6,2.01-28.1,2.2-41.99.3-21.72-4.98-61.36.46-81.4,4.01-14.76,16.85-3.33,27.14-1.25,3.27,16.86-9.91,92.35,2.78,101.24,1.16.81,16.66,5.36,17.5,4.5-.28-6.98,1.03-19.33,5.9-24.57,4.08-4.4,12.24-1.98,13.92-6.7,2.42-6.81-4.44-11.93-3.44-17.22.92-4.85,6.35-6.81,7.6-8.97,5.65-9.75,3.21-34.92,4.06-47.51.51-7.54,4.19-16.78,4.15-24.06-.05-9.04-9.8-16.52,1.06-22.72,7.62-4.35,15.84-1.92,22.51,3,12.38,9.14,3.52,12.59,2.35,21.86-1.83,14.59-3.52,35.11-4.19,49.81-1.89,41.77,1.99,83.51,2.07,125.09l14.01-.02c.23-4.19-1.47-7.85-1.1-12.08,1.45-16.7,5.63-53.16,9.65-68.36,5.45-20.62,30.54-15.92,31.32,3.6.15,3.74-1.93,7.62-1.96,11.77-.56,68.38-3.79,137.75-3.5,206.08.03,8.04,3.23,18.17,1.62,26.99,29.04-17.75-4.93-52.78,12.26-74.71,7.94-10.12,25.06-1.21,31.72,6.72,6.17,7.34,1.45,8.17,1.82,14.99.88,16.36.56,30.37.18,47.01-5.32-1.72-7.37,10.77-7.51,13.48-.33,6.25,2.81,10.3,3.51,14.52,2.93,17.66,1.64,42.47-.03,60.97-4.65,51.34-20.75,118.54-15.97,169.03-5.43,4.53-13.74.21-12,6-11.75-.58-21.91,4.12-30.83,3.82-7.75-.27-20.69-4.74-30.17-5.42-28.46-2.05-54.71-3.47-83-8.39,3.84-12.53-11.23-19.41-8-2-9.58-1.65-36.2-3.96-41.98-11.02-7.12-8.7,1.34-40.34,2.05-51.91,4.17-68.32-4.3-135.8-4.26-204.07,0-7.06,2.81-13.78,2.92-20.78.9-54.14-2.69-112.36-6.74-166.22ZM891.19,1086.51c1.79-1.82-1.98-10.09-6.64-9.64-7.02.67-11.5,6.77-11.37,13.64,2.9-1.28,17.36-3.34,18-4Z"/>
  <path class="cls-2" d="M566.42,789.3c35.16,25.19,48.65,63.57,44.83,106.11-1.14,12.71-4.08,22.34-12.03,32.16-14.33,17.7-44.07,40.84-67.08,42.92-40.95,3.71-61.14-3.85-84.26-37.68-12.91-18.89-19.43-37.1-16.55-61.13,7.04-58.73,77.19-123.84,135.08-82.38ZM547.78,847.93c-1.91-2.56-1.11-8.28-4.61-10.4-2.04-1.24-11.53-2.78-14.07-2.15-2.12.52-23.86,13.01-26.35,15.13-5.33,4.52-14.36,17.32-16.54,24.02-6.28,19.34.92,45.25,23.93,48.03,7.01.85,24.86,1.91,31.84,1.76,18.7-.4,26.43-26.99,25.17-42.78-.49-6.17-3.67-19.97-7.09-24.9s-10.33-6.11-12.27-8.72Z"/>
</svg>